# xmcd
#
# Track frame offsets: 
#        150
#        12472
#        26942
#        40700
#        53347
#        74020
#        85505
#        97540
#        114485
#        125970
#        139537
#        148467
#        158915
#
# Disc length: 2249 seconds
#
# Revision: 4
# Processed by: cddbd v1.5.2PL0 Copyright (c) Steve Scherf et al.
# Submitted via: ExactAudioCopy v0.99pb4
#
DISCID=af08c70d
DTITLE=Staple Singers - Soul Folk In Action
DYEAR=1968
DGENRE=R&B/Soul
TTITLE0=We've Got To Get Ourselves Together
TTITLE1=(Sittin' On) The Dock Of The Bay
TTITLE2=Top Of The Mountain
TTITLE3=Slow Train
TTITLE4=The Weight
TTITLE5=Long Walk To D.C.
TTITLE6=Got To Be Some Changes Made
TTITLE7=The Ghetto
TTITLE8=People, My People
TTITLE9=I See It
TTITLE10=This Year
TTITLE11=The Lady's Letter (Bonus Track)
TTITLE12=Pop's Instrumental (Bonus Track)
EXTD=© 1991\nLabel: Fantasy, Inc. - Stax Records\nSCD-8561-2 (STS-2004
EXTD=]\nDigitally Remastered
EXTT0=
EXTT1=
EXTT2=
EXTT3=
EXTT4=
EXTT5=
EXTT6=
EXTT7=
EXTT8=
EXTT9=
EXTT10=
EXTT11=
EXTT12=
PLAYORDER=
